<svg width="50" height="50" viewBox="0 0 50 50" fill="none" xmlns="http://www.w3.org/2000/svg">
<rect width="50" height="50" rx="25" fill="#343434"/>
<mask id="mask0_4_11" style="mask-type:alpha" maskUnits="userSpaceOnUse" x="10" y="10" width="30" height="30">
<rect x="10" y="10" width="30" height="30" fill="#D9D9D9"/>
</mask>
<g mask="url(#mask0_4_11)">
<path d="M12.5 37.5V35C13.4583 35 14.4063 34.9375 15.3438 34.8125C16.2812 34.6875 17.1979 34.4583 18.0938 34.125C17.1354 33.6458 16.3802 32.9531 15.8281 32.0469C15.276 31.1406 15 30.1562 15 29.0938V26.25H20V22.5H24.2188L20.125 14.3125L22.375 13.1875L26.4688 21.375C26.8854 22.2083 26.8542 23.0208 26.375 23.8125C25.8958 24.6042 25.1875 25 24.25 25H22.5V26.25C22.5 26.9375 22.2552 27.526 21.7656 28.0156C21.276 28.5052 20.6875 28.75 20 28.75H17.5V29.0938C17.5 29.8229 17.724 30.4635 18.1719 31.0156C18.6198 31.5677 19.1875 31.9375 19.875 32.125L20.25 32.2188C21.0833 32.4271 21.5521 32.9479 21.6562 33.7812C21.7604 34.6146 21.4375 35.2396 20.6875 35.6562C19.4375 36.3438 18.1198 36.8229 16.7344 37.0938C15.349 37.3646 13.9375 37.5 12.5 37.5ZM30.375 33.9375L28.5938 32.1875C29.0312 31.75 29.375 31.2448 29.625 30.6719C29.875 30.099 30 29.4792 30 28.8125C30 28.1458 29.875 27.526 29.625 26.9531C29.375 26.3802 29.0312 25.875 28.5938 25.4375L30.375 23.6562C31.0417 24.3229 31.5625 25.099 31.9375 25.9844C32.3125 26.8698 32.5 27.8125 32.5 28.8125C32.5 29.8125 32.3125 30.75 31.9375 31.625C31.5625 32.5 31.0417 33.2708 30.375 33.9375ZM33.9062 37.5L32.125 35.7188C33.0208 34.8229 33.724 33.7865 34.2344 32.6094C34.7448 31.4323 35 30.1667 35 28.8125C35 27.4375 34.7448 26.1667 34.2344 25C33.724 23.8333 33.0208 22.8021 32.125 21.9062L33.9062 20.125C35.0312 21.25 35.9115 22.5521 36.5469 24.0312C37.1823 25.5104 37.5 27.1042 37.5 28.8125C37.5 30.5 37.1823 32.0885 36.5469 33.5781C35.9115 35.0677 35.0312 36.375 33.9062 37.5Z" fill="#49A1C7"/>
</g>
</svg>
