<svg width="50" height="50" viewBox="0 0 50 50" fill="none" xmlns="http://www.w3.org/2000/svg">
<rect width="50" height="50" rx="25" fill="#343434"/>
<mask id="mask0_8_47" style="mask-type:alpha" maskUnits="userSpaceOnUse" x="10" y="10" width="30" height="30">
<rect x="10" y="10" width="30" height="30" fill="#D9D9D9"/>
</mask>
<g mask="url(#mask0_8_47)">
<path d="M32.5 26.25V23.75H37.5V26.25H32.5ZM34 35L30 32L31.5 30L35.5 33L34 35ZM31.5 20L30 18L34 15L35.5 17L31.5 20ZM16.25 33.75V28.75H15C14.3125 28.75 13.724 28.5052 13.2344 28.0156C12.7448 27.526 12.5 26.9375 12.5 26.25V23.75C12.5 23.0625 12.7448 22.474 13.2344 21.9844C13.724 21.4948 14.3125 21.25 15 21.25H20L26.25 17.5V32.5L20 28.75H18.75V33.75H16.25ZM23.75 28.0625V21.9375L20.6875 23.75H15V26.25H20.6875L23.75 28.0625ZM27.5 29.1875V20.8125C28.0625 21.3125 28.5156 21.9219 28.8594 22.6406C29.2031 23.3594 29.375 24.1458 29.375 25C29.375 25.8542 29.2031 26.6406 28.8594 27.3594C28.5156 28.0781 28.0625 28.6875 27.5 29.1875Z" fill="#49A1C7"/>
</g>
</svg>
