<svg width="50" height="50" viewBox="0 0 50 50" fill="none" xmlns="http://www.w3.org/2000/svg">
<rect width="50" height="50" rx="25" fill="#343434"/>
<mask id="mask0_4_28" style="mask-type:alpha" maskUnits="userSpaceOnUse" x="10" y="10" width="30" height="30">
<rect x="10" y="10" width="30" height="30" fill="#D9D9D9"/>
</mask>
<g mask="url(#mask0_4_28)">
<path d="M11.25 35V30C11.25 29.2917 11.4948 28.6979 11.9844 28.2188C12.474 27.7396 13.0625 27.5 13.75 27.5H17.8438C18.2604 27.5 18.6562 27.6042 19.0312 27.8125C19.4062 28.0208 19.7083 28.3021 19.9375 28.6562C20.5417 29.4688 21.2865 30.1042 22.1719 30.5625C23.0573 31.0208 24 31.25 25 31.25C26.0208 31.25 26.974 31.0208 27.8594 30.5625C28.7448 30.1042 29.4792 29.4688 30.0625 28.6562C30.3333 28.3021 30.651 28.0208 31.0156 27.8125C31.3802 27.6042 31.7604 27.5 32.1562 27.5H36.25C36.9583 27.5 37.5521 27.7396 38.0313 28.2188C38.5104 28.6979 38.75 29.2917 38.75 30V35H30V32.1562C29.2708 32.6771 28.4844 33.0729 27.6406 33.3438C26.7969 33.6146 25.9167 33.75 25 33.75C24.1042 33.75 23.2292 33.6094 22.375 33.3281C21.5208 33.0469 20.7292 32.6458 20 32.125V35H11.25ZM25 30C24.2083 30 23.4583 29.8177 22.75 29.4531C22.0417 29.0885 21.4479 28.5833 20.9688 27.9375C20.6146 27.4167 20.1719 27.0052 19.6406 26.7031C19.1094 26.401 18.5313 26.25 17.9063 26.25C18.3646 25.4792 19.3333 24.8698 20.8125 24.4219C22.2917 23.974 23.6875 23.75 25 23.75C26.3125 23.75 27.7083 23.974 29.1875 24.4219C30.6667 24.8698 31.6354 25.4792 32.0938 26.25C31.4896 26.25 30.9167 26.401 30.375 26.7031C29.8333 27.0052 29.3854 27.4167 29.0312 27.9375C28.5729 28.6042 27.9896 29.1146 27.2812 29.4688C26.5729 29.8229 25.8125 30 25 30ZM15 26.25C13.9583 26.25 13.0729 25.8854 12.3438 25.1562C11.6146 24.4271 11.25 23.5417 11.25 22.5C11.25 21.4375 11.6146 20.5469 12.3438 19.8281C13.0729 19.1094 13.9583 18.75 15 18.75C16.0625 18.75 16.9531 19.1094 17.6719 19.8281C18.3906 20.5469 18.75 21.4375 18.75 22.5C18.75 23.5417 18.3906 24.4271 17.6719 25.1562C16.9531 25.8854 16.0625 26.25 15 26.25ZM35 26.25C33.9583 26.25 33.0729 25.8854 32.3438 25.1562C31.6146 24.4271 31.25 23.5417 31.25 22.5C31.25 21.4375 31.6146 20.5469 32.3438 19.8281C33.0729 19.1094 33.9583 18.75 35 18.75C36.0625 18.75 36.9531 19.1094 37.6719 19.8281C38.3906 20.5469 38.75 21.4375 38.75 22.5C38.75 23.5417 38.3906 24.4271 37.6719 25.1562C36.9531 25.8854 36.0625 26.25 35 26.25ZM25 22.5C23.9583 22.5 23.0729 22.1354 22.3438 21.4062C21.6146 20.6771 21.25 19.7917 21.25 18.75C21.25 17.6875 21.6146 16.7969 22.3438 16.0781C23.0729 15.3594 23.9583 15 25 15C26.0625 15 26.9531 15.3594 27.6719 16.0781C28.3906 16.7969 28.75 17.6875 28.75 18.75C28.75 19.7917 28.3906 20.6771 27.6719 21.4062C26.9531 22.1354 26.0625 22.5 25 22.5Z" fill="#49A1C7"/>
</g>
</svg>
