<svg width="50" height="50" viewBox="0 0 50 50" fill="none" xmlns="http://www.w3.org/2000/svg">
<rect width="50" height="50" rx="25" fill="#343434"/>
<mask id="mask0_4_21" style="mask-type:alpha" maskUnits="userSpaceOnUse" x="10" y="10" width="30" height="30">
<rect x="10" y="10" width="30" height="30" fill="#D9D9D9"/>
</mask>
<g mask="url(#mask0_4_21)">
<path d="M25 26.875L32.5 21.875L25 16.875V26.875ZM25.875 33.75H32.875C32.7292 34.2917 32.4792 34.7292 32.125 35.0625C31.7709 35.3958 31.3125 35.6042 30.75 35.6875L17.125 37.3438C16.4375 37.4479 15.8177 37.2865 15.2656 36.8594C14.7136 36.4323 14.3959 35.875 14.3125 35.1875L12.6563 21.5313C12.5729 20.8438 12.7396 20.2292 13.1563 19.6875C13.5729 19.1458 14.125 18.8333 14.8125 18.75L16.25 18.5625V21.0625L15.125 21.2188L16.8125 34.875L25.875 33.75ZM21.25 31.25C20.5625 31.25 19.974 31.0052 19.4844 30.5156C18.9948 30.026 18.75 29.4375 18.75 28.75V15C18.75 14.3125 18.9948 13.724 19.4844 13.2344C19.974 12.7448 20.5625 12.5 21.25 12.5H35C35.6875 12.5 36.2761 12.7448 36.7656 13.2344C37.2552 13.724 37.5 14.3125 37.5 15V28.75C37.5 29.4375 37.2552 30.026 36.7656 30.5156C36.2761 31.0052 35.6875 31.25 35 31.25H21.25ZM21.25 28.75H35V15H21.25V28.75Z" fill="#49A1C7"/>
</g>
</svg>
